# xmcd
#
# Track frame offsets:
#	150
#	13861
#	30136
#	40772
#	51708
#	63688
#	78056
#	90766
#	104796
#	116978
#	132002
#	147780
#	161297
#	180032
#	196486
#	211593
#
# Disc length: 3040 seconds
#
# Revision: 0
# Processed by: cddbd v1.5.1PL0 Copyright (c) Steve Scherf et al.
# Submitted via: dBpowerAMP V4.0
#
DISCID=c90bde10
DTITLE=Heidi Hauge - Country Jewels
DYEAR=2004
DGENRE=Country
TTITLE0=Sorry You Asked ?
TTITLE1=Banks Of The Ohio
TTITLE2=Making Plans
TTITLE3=Silver Treads And Golden Needles
TTITLE4=Crying Time
TTITLE5=Much To Young
TTITLE6=Daddy
TTITLE7=She Never Spoke Spanish To Me
TTITLE8=Should I Do It
TTITLE9=Forth Wordh
TTITLE10=Fair To Midland
TTITLE11=Right Now
TTITLE12=My Farwell Party
TTITLE13=You Are My Sunshine
TTITLE14=Train And Boats And Planes
TTITLE15=I Don't Want Tonight To Be Over
EXTD=
EXTT0=
EXTT1=
EXTT2=
EXTT3=
EXTT4=
EXTT5=
EXTT6=
EXTT7=
EXTT8=
EXTT9=
EXTT10=
EXTT11=
EXTT12=
EXTT13=
EXTT14=
EXTT15=
PLAYORDER=
